<mxfile host="app.diagrams.net" modified="2024-12-22T08:01:55.874Z" agent="Mozilla/5.0 (Windows NT 10.0; Win64; x64) AppleWebKit/537.36 (KHTML, like Gecko) Chrome/131.0.0.0 Safari/537.36" etag="j6AoPXsTBnGMyGcAHx3A" version="24.6.4" type="device">
  <diagram name="Page-1" id="2a216829-ef6e-dabb-86c1-c78162f3ba2b">
    <mxGraphModel dx="2074" dy="1140" grid="1" gridSize="10" guides="1" tooltips="1" connect="1" arrows="1" fold="1" page="1" pageScale="1" pageWidth="850" pageHeight="1100" background="none" math="0" shadow="0">
      <root>
        <mxCell id="0" />
        <mxCell id="1" parent="0" />
        <mxCell id="7a84cebc1def654-1" value="" style="shape=mxgraph.bpmn.shape;html=1;verticalLabelPosition=bottom;labelBackgroundColor=#ffffff;verticalAlign=top;perimeter=ellipsePerimeter;outline=standard;symbol=general;" parent="1" vertex="1">
          <mxGeometry x="40" y="255" width="50" height="50" as="geometry" />
        </mxCell>
        <mxCell id="7a84cebc1def654-2" value="Вывести значение перменной" style="shape=ext;rounded=1;html=1;whiteSpace=wrap;" parent="1" vertex="1">
          <mxGeometry x="120" y="240" width="120" height="80" as="geometry" />
        </mxCell>
        <mxCell id="L_mr_ryBxTaLO6SqvUHP-2" style="edgeStyle=orthogonalEdgeStyle;rounded=0;orthogonalLoop=1;jettySize=auto;html=1;exitX=0;exitY=0.5;exitDx=0;exitDy=0;entryX=0.5;entryY=0;entryDx=0;entryDy=0;" edge="1" parent="1" source="7a84cebc1def654-3" target="7a84cebc1def654-2">
          <mxGeometry relative="1" as="geometry" />
        </mxCell>
        <mxCell id="7a84cebc1def654-3" value="Увеличить значение переменной на 1" style="shape=ext;rounded=1;html=1;whiteSpace=wrap;" parent="1" vertex="1">
          <mxGeometry x="340" y="100" width="120" height="80" as="geometry" />
        </mxCell>
        <mxCell id="7a84cebc1def654-26" value="" style="shape=mxgraph.bpmn.shape;html=1;verticalLabelPosition=bottom;labelBackgroundColor=#ffffff;verticalAlign=top;perimeter=ellipsePerimeter;outline=end;symbol=general;" parent="1" vertex="1">
          <mxGeometry x="720" y="255.00000000000006" width="50" height="50" as="geometry" />
        </mxCell>
        <mxCell id="7a84cebc1def654-36" style="edgeStyle=orthogonalEdgeStyle;rounded=0;html=1;jettySize=auto;orthogonalLoop=1;" parent="1" source="7a84cebc1def654-1" target="7a84cebc1def654-2" edge="1">
          <mxGeometry relative="1" as="geometry" />
        </mxCell>
        <mxCell id="7a84cebc1def654-39" style="edgeStyle=orthogonalEdgeStyle;rounded=0;html=1;jettySize=auto;orthogonalLoop=1;entryX=0;entryY=0.5;entryDx=0;entryDy=0;" parent="1" source="7a84cebc1def654-2" target="L_mr_ryBxTaLO6SqvUHP-1" edge="1">
          <mxGeometry relative="1" as="geometry" />
        </mxCell>
        <mxCell id="7a84cebc1def654-46" style="edgeStyle=orthogonalEdgeStyle;rounded=0;html=1;jettySize=auto;orthogonalLoop=1;exitX=1;exitY=0.5;exitDx=0;exitDy=0;" parent="1" source="L_mr_ryBxTaLO6SqvUHP-4" target="7a84cebc1def654-26" edge="1">
          <mxGeometry relative="1" as="geometry">
            <mxPoint x="1075" y="505" as="sourcePoint" />
          </mxGeometry>
        </mxCell>
        <mxCell id="L_mr_ryBxTaLO6SqvUHP-3" style="edgeStyle=orthogonalEdgeStyle;rounded=0;orthogonalLoop=1;jettySize=auto;html=1;exitX=0.5;exitY=0;exitDx=0;exitDy=0;entryX=0.5;entryY=1;entryDx=0;entryDy=0;" edge="1" parent="1" source="L_mr_ryBxTaLO6SqvUHP-1" target="7a84cebc1def654-3">
          <mxGeometry relative="1" as="geometry" />
        </mxCell>
        <mxCell id="L_mr_ryBxTaLO6SqvUHP-5" style="edgeStyle=orthogonalEdgeStyle;rounded=0;orthogonalLoop=1;jettySize=auto;html=1;exitX=1;exitY=0.5;exitDx=0;exitDy=0;entryX=0;entryY=0.5;entryDx=0;entryDy=0;" edge="1" parent="1" source="L_mr_ryBxTaLO6SqvUHP-1" target="L_mr_ryBxTaLO6SqvUHP-4">
          <mxGeometry relative="1" as="geometry" />
        </mxCell>
        <mxCell id="L_mr_ryBxTaLO6SqvUHP-7" value="&lt;font style=&quot;font-size: 13px;&quot;&gt;Переменная &amp;gt;= 5&lt;/font&gt;" style="edgeLabel;html=1;align=center;verticalAlign=middle;resizable=0;points=[];" vertex="1" connectable="0" parent="L_mr_ryBxTaLO6SqvUHP-5">
          <mxGeometry x="0.075" y="2" relative="1" as="geometry">
            <mxPoint x="-5" y="-23" as="offset" />
          </mxGeometry>
        </mxCell>
        <mxCell id="L_mr_ryBxTaLO6SqvUHP-1" value="" style="rhombus;whiteSpace=wrap;html=1;" vertex="1" parent="1">
          <mxGeometry x="360" y="240" width="80" height="80" as="geometry" />
        </mxCell>
        <mxCell id="L_mr_ryBxTaLO6SqvUHP-4" value="Вывести &quot;Значение &amp;gt;= 5&quot;" style="shape=ext;rounded=1;html=1;whiteSpace=wrap;" vertex="1" parent="1">
          <mxGeometry x="560" y="240" width="120" height="80" as="geometry" />
        </mxCell>
      </root>
    </mxGraphModel>
  </diagram>
</mxfile>
